<?xml version="1.0" standalone="no"?>
<!DOCTYPE svg PUBLIC "-//W3C//DTD SVG 20010904//EN"
 "http://www.w3.org/TR/2001/REC-SVG-20010904/DTD/svg10.dtd">
<svg version="1.0" xmlns="http://www.w3.org/2000/svg"
 width="400.000000pt" height="400.000000pt" viewBox="0 0 400.000000 400.000000"
 preserveAspectRatio="xMidYMid meet">
<metadata>
Created by potrace 1.11, written by Peter Selinger 2001-2013
</metadata>
<g transform="translate(0.000000,400.000000) scale(0.100000,-0.100000)"
fill="#000000" stroke="none">
<path d="M1965 3994 c-86 -13 -195 -41 -330 -85 -193 -62 -265 -79 -345 -79
-72 0 -174 21 -221 46 -17 8 -32 14 -34 12 -2 -2 1 -27 7 -57 7 -43 32 -107
66 -173 2 -5 0 -8 -6 -8 -5 0 -21 17 -35 37 l-27 38 0 -33 c0 -49 -18 -29 -26
28 -4 28 -11 50 -16 50 -5 0 -17 -18 -26 -40 -9 -22 -22 -40 -28 -40 -7 0 -35
16 -64 35 -29 19 -54 35 -56 35 -6 0 32 -93 62 -151 22 -43 26 -66 28 -153 2
-92 0 -104 -20 -131 -34 -45 -71 -131 -91 -210 -14 -55 -17 -112 -17 -265 0
-211 12 -288 69 -416 34 -76 33 -109 -5 -140 -40 -34 -53 -89 -48 -199 6 -112
26 -168 94 -270 29 -44 69 -115 88 -158 39 -85 62 -102 122 -91 l33 6 45 -144
c25 -79 60 -166 77 -193 18 -28 84 -102 149 -165 l117 -115 8 -88 7 -87 -61 0
c-75 0 -114 -15 -200 -79 -104 -77 -157 -100 -252 -111 -99 -11 -128 -29 -149
-91 l-15 -43 -105 -21 c-131 -27 -168 -39 -252 -82 -119 -62 -236 -187 -288
-309 -11 -25 -20 -48 -20 -50 0 -2 389 -4 865 -4 540 0 865 4 865 9 0 6 -38
42 -85 82 -47 39 -84 73 -82 75 2 2 25 -5 53 -15 27 -10 60 -22 74 -26 24 -7
23 -6 -8 28 -28 29 -43 64 -87 208 -30 96 -54 171 -54 168 -1 -3 8 -64 19
-135 27 -176 28 -166 -22 -162 -40 3 -47 8 -93 70 -27 36 -67 97 -87 135 l-36
68 13 100 c7 55 19 114 26 131 l12 31 61 -42 c127 -89 268 -145 363 -145 101
0 248 55 371 139 34 22 63 41 66 41 4 0 6 -8 6 -18 0 -10 4 -22 9 -27 4 -6 14
-57 21 -114 l14 -104 -32 -61 c-42 -80 -117 -174 -148 -186 -14 -6 -39 -10
-55 -10 -25 0 -29 3 -24 23 6 29 25 149 25 162 0 6 -12 -24 -26 -65 -14 -41
-40 -105 -57 -141 l-32 -66 44 14 c24 7 51 13 59 13 8 0 -28 -40 -79 -90 l-94
-89 877 -1 878 0 -11 27 c-60 160 -187 286 -357 357 -57 24 -212 65 -304 81
-32 5 -38 10 -38 31 0 39 -27 82 -62 100 -18 9 -68 21 -113 26 -94 10 -141 32
-211 98 -69 65 -104 82 -175 81 -33 0 -64 -3 -69 -6 -6 -4 -10 24 -10 75 l0
81 134 132 c153 151 164 169 222 365 l39 133 31 -6 c44 -8 80 11 100 54 42 91
68 138 98 180 75 102 106 197 106 318 0 79 -15 135 -45 163 l-22 21 18 77 c21
87 24 177 8 251 -9 42 -7 64 10 133 68 279 11 479 -200 702 -72 76 -136 121
-203 141 -18 5 -18 6 0 26 13 15 28 20 51 17 25 -3 30 -1 21 9 -6 7 -22 13
-36 13 -25 0 -25 1 18 46 47 49 30 47 -37 -3 -18 -13 -33 -22 -33 -19 0 3 11
35 25 72 29 78 11 72 -30 -9 l-25 -51 0 42 c0 23 -4 42 -9 42 -9 0 -21 -48
-21 -84 0 -17 -19 -3 -89 66 -143 139 -302 206 -505 213 -56 2 -114 1 -131 -1z
m635 -929 c-25 -25 -60 -56 -77 -68 -18 -12 -33 -25 -33 -29 0 -10 80 19 100
36 33 28 40 29 30 2 -13 -35 0 -32 27 5 l21 31 7 -48 c11 -71 35 -130 100
-238 98 -165 119 -249 130 -531 4 -93 13 -200 19 -236 l12 -67 -93 -308 c-51
-169 -105 -328 -119 -352 -63 -107 -320 -332 -467 -408 -114 -59 -166 -74
-259 -74 -130 0 -270 65 -436 204 -114 95 -265 253 -290 303 -12 22 -65 183
-120 359 l-100 319 27 186 26 186 47 21 c106 47 220 48 453 3 55 -11 134 -22
176 -26 70 -7 79 -5 98 14 26 26 16 60 -22 79 -37 18 -287 52 -389 52 -145 0
-244 -30 -317 -95 -38 -34 -41 -35 -41 -15 0 40 40 284 60 363 18 74 153 357
170 357 4 0 25 -7 46 -16 25 -10 62 -16 102 -14 34 1 74 2 90 2 15 0 58 -11
96 -26 91 -35 238 -49 431 -41 234 9 378 37 485 94 55 30 57 24 10 -24z
m-1710 -801 c0 -8 -4 -12 -10 -9 -5 3 -10 10 -10 16 0 5 5 9 10 9 6 0 10 -7
10 -16z m2240 6 c0 -5 -5 -10 -11 -10 -5 0 -7 5 -4 10 3 6 8 10 11 10 2 0 4
-4 4 -10z m-2287 -108 c-6 -96 13 -181 64 -287 15 -31 17 -42 7 -30 -9 11 -30
49 -47 84 -25 52 -31 80 -35 156 -4 83 2 165 13 165 2 0 1 -40 -2 -88z m2324
-67 c-3 -49 -10 -106 -16 -125 -16 -52 -74 -145 -90 -145 -8 0 -16 -6 -19 -14
-3 -9 0 -11 9 -6 8 5 12 6 9 2 -3 -3 -8 -5 -11 -4 -10 3 -49 -34 -49 -46 0 -6
8 -3 18 6 12 11 2 -17 -25 -73 -39 -83 -45 -90 -72 -90 -16 0 -32 4 -35 9 -9
13 43 175 57 180 6 2 40 33 75 68 60 62 62 66 62 117 0 29 -5 66 -10 83 -7 18
-7 39 -2 53 l9 24 13 -24 c7 -14 15 -57 18 -96 4 -61 1 -78 -21 -124 -15 -30
-24 -56 -22 -58 7 -7 43 73 70 158 24 75 26 96 22 175 -4 71 -3 83 5 55 5 -19
8 -75 5 -125z m-37 40 c5 -28 5 -67 0 -85 -4 -19 -8 -26 -9 -15 0 11 -11 48
-23 82 -19 54 -20 66 -9 90 l13 28 10 -25 c5 -14 13 -48 18 -75z m-2226 43 c3
-19 -1 -50 -9 -73 -8 -22 -15 -51 -15 -65 -2 -24 -2 -24 -11 5 -13 40 3 165
21 165 4 0 10 -15 14 -32z m25 -126 c-5 -13 -9 -48 -9 -79 0 -55 0 -55 69
-124 39 -39 71 -64 73 -57 2 6 18 -31 34 -83 32 -100 31 -109 -18 -109 -30 0
-31 2 -86 115 -30 62 -31 67 -10 50 l22 -20 -16 25 c-8 14 -20 25 -26 25 -6 0
-17 6 -24 14 -11 11 -11 13 1 6 16 -9 16 -9 -23 69 -34 67 -38 122 -16 201
l14 49 12 -29 c8 -19 9 -38 3 -53z m61 -99 c0 -33 36 -110 47 -99 3 3 -5 19
-17 35 -12 17 -20 41 -18 54 3 19 5 17 21 -16 22 -45 29 -107 13 -107 -6 0
-24 16 -40 36 -28 35 -44 99 -32 129 10 26 26 7 26 -32z m2046 -16 c-4 -41
-13 -58 -40 -86 -20 -19 -38 -33 -40 -30 -3 3 8 25 24 49 17 25 30 57 30 72 0
36 10 59 22 52 6 -4 8 -27 4 -57z m-51 -37 c-23 -44 -30 -31 -8 15 10 20 19
32 21 26 2 -5 -4 -24 -13 -41z"/>
<path d="M2380 2469 c-254 -42 -270 -48 -270 -89 0 -59 69 -64 297 -19 210 42
366 46 431 11 24 -13 46 -21 48 -19 11 10 -83 78 -135 99 -45 17 -81 22 -186
24 -71 2 -155 -1 -185 -7z"/>
<path d="M1445 2298 c-33 -3 -71 -11 -85 -18 l-25 -11 25 7 c14 3 70 8 125 11
96 4 102 3 160 -27 61 -31 60 -31 -35 3 -44 15 -72 18 -140 14 -82 -5 -192
-36 -206 -58 -8 -13 51 -110 98 -161 l38 -41 157 6 c87 3 169 10 183 16 19 9
3 10 -75 6 -55 -2 -93 -2 -85 1 8 4 27 18 43 32 22 21 27 34 27 72 0 27 -7 56
-17 70 l-17 24 39 -24 c84 -50 115 -80 115 -111 l0 -29 34 17 c43 20 53 63 21
93 -12 11 -26 20 -32 20 -6 0 -13 7 -17 15 -3 9 -14 14 -28 11 -13 -2 -35 5
-49 15 -59 42 -152 59 -254 47z m59 -48 c-78 -31 -85 -144 -12 -191 l33 -21
-58 5 c-32 3 -69 13 -83 22 -22 14 -74 101 -74 124 0 24 120 69 185 69 26 1
27 0 9 -8z m116 -45 c13 -16 6 -35 -14 -35 -18 0 -39 27 -31 40 9 14 31 12 45
-5z"/>
<path d="M2430 2299 c-35 -4 -85 -21 -138 -48 -46 -23 -87 -39 -91 -37 -12 8
-38 -24 -46 -55 -5 -20 -1 -33 17 -51 31 -34 58 -33 58 2 0 30 23 54 94 99 61
38 74 39 47 5 -23 -29 -28 -83 -10 -115 5 -11 25 -29 42 -40 l32 -21 -100 6
c-76 5 -94 3 -75 -5 37 -16 321 -25 347 -10 12 6 48 50 79 97 55 83 57 87 38
101 -61 45 -237 65 -329 38 -33 -9 -66 -22 -73 -27 -7 -6 -15 -9 -17 -6 -3 2
14 15 38 28 33 19 62 25 142 30 80 5 90 7 50 10 -28 3 -75 2 -105 -1z m207
-75 c50 -22 52 -24 44 -52 -24 -81 -68 -120 -146 -127 -42 -4 -54 -3 -39 4 78
35 84 162 10 200 -42 21 78 -1 131 -25z m-107 -19 c13 -16 6 -35 -14 -35 -18
0 -39 27 -31 40 9 14 31 12 45 -5z"/>
<path d="M2610 2280 c34 -11 60 -11 35 0 -11 5 -29 8 -40 8 -16 0 -15 -2 5 -8z"/>
<path d="M1928 1872 c-21 -81 -47 -177 -59 -214 -30 -95 -24 -110 58 -142 l68
-26 55 28 c56 28 74 55 45 66 -9 3 -48 9 -86 12 -38 4 -69 10 -69 13 0 3 7 51
14 106 22 150 29 257 19 282 -6 18 -16 -9 -45 -125z"/>
<path d="M1730 1289 c89 -83 196 -111 343 -90 82 11 184 57 242 107 l30 25
-50 -5 c-224 -26 -380 -26 -570 -1 l-40 6 45 -42z m265 6 c55 0 145 4 199 8
118 9 118 0 4 -54 -67 -31 -82 -34 -191 -37 -115 -4 -120 -3 -181 27 -34 17
-71 40 -81 51 l-19 21 85 -8 c46 -4 129 -8 184 -8z"/>
<path d="M1985 1150 l-50 -7 62 -1 c34 -1 65 3 68 8 7 11 -2 11 -80 0z"/>
<path d="M2000 111 l-75 -6 38 -24 c33 -20 41 -22 67 -11 27 11 73 52 54 48
-5 -1 -43 -4 -84 -7z"/>
</g>
</svg>
